<svg width="130" height="40" viewBox="0 0 130 40" fill="none" xmlns="http://www.w3.org/2000/svg">
<path d="M118.148 7.76172C125.247 7.76183 129.977 13.2406 129.977 20.0146L130 20C129.995 20.5221 129.962 21.0443 129.905 21.5664H111.078C111.67 25.3309 114.381 27.6426 118.177 27.6426C119.428 27.6853 120.664 27.3959 121.764 26.7979C122.863 26.1997 123.783 25.317 124.423 24.2441H129.417C128.602 26.5748 127.081 28.5922 125.058 30.0068C123.039 31.4215 120.621 32.162 118.157 32.124C112.305 32.1238 107.685 28.2168 106.528 22.6865L99.501 26.2803L97.7383 31.5498H93.8711L87.8906 17.4082L81.9434 31.5498H78.0771L70.3955 8.59766L59.8848 31.9629C57.2689 37.8208 54.9608 39.8662 50.2314 39.8662H47.876V35.5703H49.8662C52.9322 35.5703 53.8758 34.6682 55.5723 30.9512L56.1025 29.8838L52.5254 22.2549L45.2363 18.4102C45.2932 18.9085 45.3271 19.4164 45.3271 19.9385C45.3271 26.9309 40.0188 32.1191 32.9248 32.1191C25.8311 32.1189 20.5235 26.9212 20.5234 19.9385C20.5234 12.9556 25.8405 7.76195 32.9248 7.76172C37.1897 7.76172 40.8103 9.63719 43.0186 12.6562L49.6719 16.1689L46 8.34082H51.1836L58.5576 24.5381L65.4717 8.34082L70.5234 8.3125L70.5137 8.32715H75.2197L80.4561 23.9785L87.1133 8.57812H88.6494L95.3975 24.0918L100.714 8.32715H105.486L101.32 20.7881L106.344 18.2197C107.116 12.153 111.931 7.76172 118.148 7.76172ZM4.76758 0V17.3135H7.69141L13.9512 8.33203H19.6045L11.7471 19.4775L20.4385 31.5547H14.6094L7.6582 21.6475H4.76758V31.5547H0V0H4.76758ZM32.9297 12.3193C28.5322 12.3195 25.3809 15.5143 25.3809 19.9385C25.3809 24.3626 28.5418 27.5623 32.9297 27.5625C37.3178 27.5625 40.4784 24.3864 40.4785 19.9385C40.4785 15.4904 37.3273 12.3193 32.9297 12.3193ZM118.182 12.0723C114.594 12.0723 111.983 14.2421 111.201 17.6885H125.228C124.37 14.1567 121.769 12.0724 118.182 12.0723Z" fill="#0D442E"/>
</svg>
